<?xml version="1.0" encoding="utf-8"?>
<!-- Generator: Adobe Illustrator 26.0.2, SVG Export Plug-In . SVG Version: 6.00 Build 0)  -->
<svg version="1.1" id="Capa_1" xmlns="http://www.w3.org/2000/svg" xmlns:xlink="http://www.w3.org/1999/xlink" x="0px" y="0px"
	 width="146.3px" height="64px" viewBox="0 0 146.3 64" style="enable-background:new 0 0 146.3 64;" xml:space="preserve">
<style type="text/css">
	.st0{fill:#E62E1F;}
	.st1{opacity:0.2;}
	.st2{fill:#231F20;}
	.st3{fill:#4F5D73;}
	.st4{fill:#FFFFFF;}
	.st5{fill:none;}
	.st6{enable-background:new    ;}
</style>
<g>
	<circle class="st0" cx="32" cy="32" r="32"/>
</g>
<g class="st1">
	<path class="st2" d="M49.9,46.2L35.8,32.1c-1-1-2.5-1.4-3.8-1l-8.1-8l-3-5.9l-5.9-3L12.1,17l3,5.9l5.9,3l0,0l8.1,8
		c-0.4,1.3,0,2.8,1,3.8l14.1,14.1c1.6,1.6,4.1,1.6,5.7,0C51.5,50.3,51.5,47.8,49.9,46.2z"/>
</g>
<g>
	<polygon class="st3" points="34.5,37.3 18.4,21.4 21.3,18.6 37.4,34.5 	"/>
</g>
<g>
	<path class="st3" d="M49.9,49.9c-1.6,1.6-4.1,1.6-5.7,0L30.1,35.8c-1.6-1.6-1.6-4.1,0-5.7l0,0c1.6-1.6,4.1-1.6,5.7,0l14.1,14.1
		C51.5,45.8,51.5,48.3,49.9,49.9L49.9,49.9z"/>
</g>
<g class="st1">
	<path class="st2" d="M53.3,18.4l-6.5,6.5c-1.6,1.6-4.1,1.6-5.7,0c-1.6-1.6-1.6-4.1,0-5.7l6.5-6.5C46.5,12.3,45.3,12,44,12
		c-5.5,0-10,4.5-10,10c0,1.3,0.3,2.5,0.7,3.6l-11,11C22.5,36.3,21.3,36,20,36c-5.5,0-10,4.5-10,10c0,1.3,0.3,2.5,0.7,3.6l6.5-6.5
		c1.6-1.6,4.1-1.6,5.7,0s1.6,4.1,0,5.7l-6.5,6.5c1.1,0.4,2.4,0.7,3.6,0.7c5.5,0,10-4.5,10-10c0-1.3-0.3-2.5-0.7-3.6l11-11
		c1.1,0.4,2.4,0.7,3.6,0.7c5.5,0,10-4.5,10-10C54,20.7,53.7,19.5,53.3,18.4z"/>
</g>
<g>
	<rect x="23.4" y="28" transform="matrix(0.7071 -0.7071 0.7071 0.7071 -13.2693 31.947)" class="st4" width="17.1" height="8"/>
</g>
<g>
	<polygon class="st3" points="21,23.9 15.1,20.9 12.1,15 14.9,12.1 20.8,15.2 23.9,21.1 	"/>
</g>
<g>
	<g>
		<path class="st4" d="M46.8,22.8c-1.6,1.6-4.1,1.6-5.7,0c-1.6-1.6-1.6-4.1,0-5.7l6.5-6.5C46.5,10.3,45.3,10,44,10
			c-5.5,0-10,4.5-10,10s4.5,10,10,10s10-4.5,10-10c0-1.3-0.3-2.5-0.7-3.6L46.8,22.8z"/>
	</g>
</g>
<g>
	<g>
		<path class="st4" d="M17.2,41.2c1.6-1.6,4.1-1.6,5.7,0s1.6,4.1,0,5.7l-6.5,6.5c1.1,0.4,2.4,0.7,3.6,0.7c5.5,0,10-4.5,10-10
			s-4.5-10-10-10s-10,4.5-10,10c0,1.3,0.3,2.5,0.7,3.6L17.2,41.2z"/>
	</g>
</g>
<g id="Layer_2">
</g>
<rect x="68.4" y="23.1" class="st5" width="99.8" height="38.6"/>
<g class="st6">
	<path class="st3" d="M69.5,23.2h9.1v4.1h-3.7v3.9h3.3v3.9h-3.3v8.6h-5.3V23.2z"/>
	<path class="st3" d="M85,23.2v2.7h-5.3v-2.7H85z M85,26.9v16.8h-5.3V26.9H85z"/>
	<path class="st3" d="M97,26.9l-2,8l2.5,8.8h-5c-0.5-2.2-0.9-4.1-1.1-5.7c-0.3,2-0.7,3.9-1.1,5.7h-4.3l2.2-8.8l-2.2-8h4.3
		c0.7,3.4,1.1,5.4,1.1,5.9c0.5-2.9,0.9-4.8,1.1-5.9H97z"/>
	<path class="st3" d="M101.6,45.7h14.7V47h-14.7V45.7z"/>
	<path class="st3" d="M132.1,23.2v13.4h1.5v3.5h-1.5v3.6h-5.1v-3.6h-6.1v-3.5l4.4-13.4H132.1z M126.9,36.6v-8.7l-2.3,8.7H126.9z"/>
	<path class="st3" d="M146.3,26.9v16.8h-5.2l0.1-1.4c-0.4,0.6-0.8,1-1.3,1.3s-1.1,0.4-1.8,0.4c-0.8,0-1.4-0.1-1.9-0.4
		s-0.9-0.6-1.1-1.1s-0.4-0.9-0.5-1.4c-0.1-0.5-0.1-1.5-0.1-2.9V26.9h5.1v11.5c0,1.3,0,2.1,0.1,2.3c0.1,0.2,0.3,0.4,0.7,0.4
		c0.4,0,0.6-0.1,0.7-0.4c0.1-0.3,0.1-1.1,0.1-2.5V26.9H146.3z"/>
</g>
</svg>
