<?xml version="1.0" encoding="utf-8"?>
<!-- Generator: Adobe Illustrator 26.0.2, SVG Export Plug-In . SVG Version: 6.00 Build 0)  -->
<svg version="1.0" id="Capa_1" xmlns="http://www.w3.org/2000/svg" xmlns:xlink="http://www.w3.org/1999/xlink" x="0px" y="0px"
	 width="359.6px" height="125.4px" viewBox="0 0 359.6 125.4" style="enable-background:new 0 0 359.6 125.4;" xml:space="preserve"
	>
<style type="text/css">
	.st0{fill:none;stroke:#000000;stroke-width:4;stroke-miterlimit:10;}
	.st1{fill:#13110C;}
	.st2{fill:none;}
	.st3{fill:#73A8BF;}
	.st4{fill:#99D3EE;}
	.st5{fill:#498592;}
	.st6{fill:#F9C2A3;}
	.st7{fill:#3B3835;}
	.st8{fill:#DC5F12;}
	.st9{fill:#DD6111;}
	.st10{fill:#ED6C16;}
	.st11{fill:#26225B;}
	.st12{fill:#1D1A31;}
</style>
<polygon class="st0" points="158.7,111.9 23.6,111.9 12.1,21.3 163.1,22.7 "/>
<g id="man_2_">
	<g>
		<path class="st1" d="M80.8,76l18.9-1.8c0,0,3.7-26.9,1.7-29.5c-0.9-1.2-1.1-2.4-1.5-3.8c-0.3-1-1.1-2-2.1-1.8
			c-0.8,0.1-1.4,1-1.7,1.7c0.9-0.6,2.2-0.4,2.9,0.4c0.7,0.8,0.7,2,0.7,3.1c0-0.7-8.6-4.2-9.6-4.7c-3.1-1.5-5.8-2.8-9.3-3.2
			c1.3,1.4,2.7,2.8,4,4.1c-0.3-0.3-4-0.5-4.5-0.6c0.9,0.6,1.8,1.2,2.7,1.7c-0.8-0.5-4.3,1.5-5,1.9c-1.4,0.8-2.7,1.9-3.1,3.5v1.1
			l2.2-1.4l1.1-0.7l-7.2,7.8L74,53l6.1,13.4l1.6,6L80.8,76z"/>
		<g>
			<polygon class="st2" points="135.1,54.8 136,53.7 137.9,50.8 38.1,59 43.4,64.4 			"/>
			<polygon class="st3" points="157.3,71.6 148.5,59.2 156.4,46.7 177,45.6 177.1,44.5 173.8,39.3 154.5,40.6 145.3,50.2 
				137.9,50.8 136,53.7 135.1,54.8 43.4,64.4 38.1,59 37.6,59 26.5,52.9 3.3,56.9 1,62.4 1.1,63.3 21.7,61.8 31.5,73.6 26.9,92.9 
				2.5,90.2 2.5,96.1 31.3,99 47.2,76.9 133.6,68.2 136,69.6 151,85.6 179.8,77.6 178.4,71 155.7,76 			"/>
			<polygon class="st4" points="154.5,40.6 173.8,39.3 177.1,44.5 177.6,37.8 147.7,35.1 137.9,50.8 145.3,50.2 			"/>
			<polygon class="st4" points="26.5,52.9 37.6,59 38.1,59 28.6,49 0,55.4 1,62.4 3.3,56.9 			"/>
			<polygon class="st4" points="157.9,72.4 157.3,71.6 155.7,76 178.4,71 178.3,70.4 			"/>
			<polygon class="st4" points="31.5,73.6 24.6,86.7 2.5,88.1 2.5,90.2 26.9,92.9 			"/>
		</g>
		<polyline class="st5" points="53.2,73.6 51.7,68.3 54.3,72.2 117.4,66.6 114.8,67.7 		"/>
		<polygon class="st4" points="126,65.5 123.5,65.7 57.7,71.5 111.4,63.7 		"/>
		<polygon class="st5" points="121.5,57.6 121.5,59.4 57.7,66 		"/>
		<path class="st6" d="M132.9,61.4c0,0,0-1.5,0-1.5c0,1.6,3-1,3.2-1.2c1.5-2.2,2.5-5.7,2-8.4c-0.3-1.6-1-2.4-2.4-3.1
			c-0.7-0.3-5.2-0.9-5.2-1.8c0-1.6,0-3.3,0-4.9c0,0.4-4.2,1.2-4.6,2.1c-0.7,1.7,0.8,6.5,1.1,8.3c0.2,1.3-0.5,2.1-1.1,3.2
			c0.1-0.1-3.1-1.1-3.4-1c-0.9,0.2-1.2,0.3-1.4,1.2c-0.7,2.6,5.7,4.3,7.4,5.2l0.7,1.9L132.9,61.4z"/>
		<path class="st6" d="M50.1,69.7l-1.1-2c0,0,7.5-4.4,7.6-4.5c0.7-0.4-0.8-2.4-1.2-2.5c-0.6-0.1-1.1,0.1-1.7,0.3
			c-0.5,0.2-1.1,0.5-1.6,0.5c-3.6,0.1-2.8-6.2-2.7-8.5c0-0.5,0-1.1-0.2-1.6c-0.7-1.4-3.5-1.2-4.8-1.3c0.2,1.2,0.5,2.4,0.7,3.6
			c0.6,2.8-5.5,4.1-7.4,5.4c-0.4,0.2,3.6,9.7,4,10.7c0,0,0.3,1,2.7,0l1.3,3.9L50.1,69.7z"/>
		<path class="st7" d="M77.5,52.9c2.2,0.6,4.3,1.3,6.5,2c2,0.7,4.4,1.1,6.3,2.1c-3.3,1.1-7.2,1.2-10.6,1.7c-0.7,0.1-2.3-4.3-2.3-4.8
			C77.2,53.6,77.2,53.1,77.5,52.9z"/>
		<path class="st7" d="M101.6,48.6c0,0-1.4,8-4.2,8.3c-2.8,0.4-16.7-5.4-16.7-5.4c0.3,0.1,1.9-0.4,2.3-0.4c2.1,0,4.2,0.7,6,1.7
			c-2.1-1.1-4.2-2.3-6.3-3.4c-2.5-1.3-5,0.6-7.4,1.6c1.3-1,2.7-2,4-3c0.3-0.2,0.6-0.5,1-0.6c1.5-0.5,3.9,1,5.3,1.5
			c2.4,0.7,4.7,1.4,7.1,2.1c-3.3-1.6-6.6-3.3-9.9-4.9c1.5,0.8,3.5,1.1,5.1,1.6c2.1,0.7,4.3,1.3,6.4,2c-2.3-1.2-4.6-2.4-7-3.6
			c2.1,0.6,4.2,1.3,6.3,1.9c1,0.3,2.9,0.5,3.7,1.1c-1-0.8-1.8-1.8-2.9-2.5c-1.1-0.8-2.2-0.6-3.4-1.1c-0.6-0.2-1.6-0.9-1-1.6
			c0.2-0.2,0.5-0.4,0.8-0.4c2.1-0.4,4.8,1.6,6.6,2.6c1.4,0.7,2.8,1.4,4.2,2.1V48.6z"/>
		<g>
			<path class="st2" d="M108.9,93.8c0.7-0.6,1.3-1.3,1.7-2.3c0.7,1,1.9,1.6,3,2.2c2.8,1.5,5.7,2.9,8.7,4.2
				c-6.9-4.7-13.1-10.1-13.1-10.1L108.9,93.8z"/>
			<path class="st8" d="M130.4,101.1c-2.8-1-5.5-2-8.2-3.2c5.9,4,12.3,7.4,15.8,6.6c0,0,1.4-1.4,1.4-1.4c1.7-1.7,0.4-6.1,0.2-8.3
				c-0.6,1.3-1.2,2.5-1.5,3C136.1,102,135.6,102.9,130.4,101.1z"/>
			<path class="st9" d="M108.2,109.8l0.7-16.3c-1.9,1.5-4.7,1.5-7.2,1c-3.7-0.7-7.6-5.3-11.6-3.8c-1.5,0.6-2.5,2-3.5,3.2
				c-1.1,1.2-2.5,2.3-4.1,2c-0.9-0.2-1.7-0.8-2.4-1.5c-1.2-1-2-1.9-3-2.7c0.5,12.9,0.6,17.9,0.6,17.9"/>
			<path class="st9" d="M111.3,145"/>
			<g>
				<path class="st10" d="M139.7,94.5c-0.3-4.5-1.3-8.9-2-13.4c-0.5-3.3-0.9-6.7-1.4-10c-0.6-2.6-0.8-6.1-2-8.5
					c-0.7-1.5-4-2.2-5.4-1.3c-2.7,1.7-1.6,6.6-1.2,9.1c2.7,14.2,4.6,23.6,4.6,23.6s-14.9-6-18.1-9.4c-1.1-1.2-2.8-2.1-3.7-3.5
					c-0.8-1.2-1.1-2.5-1.2-3.9c-0.1-0.7-0.1-1.4-0.1-2.1c0-0.7,0.2-1.4,0.1-2c0-0.2-1.5,0.4-1.6,0.4c-0.8,0.3-1.5,0.7-2.3,1.2
					c-0.9,0.5-1.7,1-2.6,1.4c-1.7,0.9-3.4,1.8-4.8,3.2c0.6-0.6,0.6-2.1,0.5-3c-0.1-1.2-0.9-2.1-1.8-2.9c-1.6-1.5-3.8-1.8-5.9-1.4
					c-2.2,0.4-4.5,1.3-6.1,2.8c-0.7,0.6-1.3,1.3-1.2,2.2c0,0.9,0.8,2.2,1.6,2.5c-1.2-0.5-2.4-1-3.6-1.6c-1.1-0.5-2.2-1.2-3.3-1.7
					c-1-0.5-2-0.6-3-1.1c-0.4-0.2-0.7-0.5-1.1-0.3c-0.8,0.2-1.3,1.4-1.5,2.1c-0.8,1.8-1,3.9-1.8,5.7c0,0,0,0,0,0
					c0,0-14.9,22-14.9,22l-5.8-35.1c0,0-4.8-1.2-5.8,3.1c-0.3,1.2,0.6,3.2,1,5.4c0.9,5.6,2.1,11.1,3.3,16.6
					c1.1,5.1,2.1,10.2,3.2,15.3C58.2,108.8,65.6,99,65.6,99l0.1,0.5c1.4-1.8,2.8-3.7,4.2-5.5c1.2-1.6,2.4-3.3,3.6-4.9
					c0.5-0.7,1-1.4,1.5-2c0.1-0.1,2-1.5,2-1.1c0,0,0.1,2.5,0.2,6.2c0.9,0.8,1.8,1.6,3,2.7c0.7,0.6,1.5,1.3,2.4,1.5
					c1.6,0.3,3-0.8,4.1-2s2-2.6,3.5-3.2c4-1.5,7.9,3.1,11.6,3.8c2.5,0.5,5.3,0.4,7.2-1l0.3-6c0,0,6.2,5.4,13.1,10.1
					c2.7,1.2,5.4,2.2,8.2,3.2c5.2,1.8,5.7,1,7.8-3.4c0.2-0.5,0.9-1.6,1.5-3C139.7,94.6,139.7,94.6,139.7,94.5z"/>
				<path class="st9" d="M51.8,110.1c0.1,0.4,0.2,0.7,0.2,1.1c0.2,1.1,0.5,2.2,0.7,3.2c0,0.1,0,0.1,0.1,0.1c0,0,0.1,0,0.2,0
					c1.2,0,1.4-0.2,2.1-1.1c0.5-0.7,1-1.3,1.5-2c1-1.3,2-2.7,3-4c2-2.7,4-5.3,6-8L65.6,99C65.6,99,58.2,108.8,51.8,110.1z"/>
			</g>
		</g>
		<g>
			<path class="st2" d="M99.7,159.9c0,0-13.5,1.4-13.5,1.4l-9.3,27c1.4-1.5,2.5-2.9,2.5-2.9s14.7-23.3,27.2-3.6
				c0.4,0.7,0.9,1.3,1.3,1.9C104.8,172.5,100.9,160.1,99.7,159.9z"/>
			<polyline class="st11" points="101.2,109.7 102.5,76 101.4,76.6 100,77.4 99,78.1 98.2,78.9 97.5,107.8 85.9,108.2 85,79.2 
				80.9,77.3 82.4,109.7 			"/>
			<path class="st11" d="M108,183.8"/>
		</g>
	</g>
	<path class="st9" d="M95.1,75.2l-0.8,0l-6.6,0.4c0,0,3.3-2.9,4.8-2.1C94,74.2,95.1,75.2,95.1,75.2z"/>
</g>
<polyline class="st12" points="77.7,110.1 82.4,110.1 102,110.1 108.2,110.1 "/>
<g>
	<path d="M190.1,31.4c0.9,0,1.7,0.2,2.1,0.6c-0.3,7.6-0.6,18.4-0.6,25.3v1.6c2.5-0.3,5.7-0.2,8.4-2c0-7.5,0.3-23.2,1.9-29.2
		c0.8-0.5,1.8-0.9,2.8-0.9c1.1,0,2.1,0.4,2.6,1.3c-0.9,5.5-1.2,18.1-1.2,31.7c0,12.6,0.3,26,0.9,35.5c-0.4,0.8-2.1,1.8-3.4,1.8
		c-2.4,0-3.5-14-3.5-25.3v-0.7c-2.5,0.9-3.9,1.7-6.2,1.7c-0.6,0-1.4-0.1-2.2-0.3c-0.1,4.3-0.6,11.2-0.9,17.9c-0.6,1.4-2,2.1-3.3,2.1
		c-1.5,0-2.9-1-2.9-2.9c1.7-23.2,1.6-38.6,2.1-56.8C187.4,31.8,188.8,31.4,190.1,31.4z"/>
	<path d="M220.6,51.7c4.1,0,7.1,7.7,7.1,18c0,4.2-1,22.4-9.7,22.4c-3.2,0-6.4-5.6-6.4-19.3c0-3.5,0.3-7.6,1.4-12.2
		C214.7,54.9,217.8,51.7,220.6,51.7z M215.4,72.4c0,4.6,1.1,8.7,3.5,8.7h0.4c3.4-1.7,4.9-6,4.9-9.9c0-4.6-1.8-8.8-4.3-8.8
		c-0.9,0-1.9,0.5-2.9,1.7C215.9,66.2,215.4,69.3,215.4,72.4z"/>
	<path d="M249.9,82.4c0-2.8,0.1-5.6,0.1-7.6c0-2-0.1-3.3-0.4-3.3c-0.1,0-0.3,0.2-0.5,0.7c-4.9,9.9-6.1,14.4-7.4,14.4
		c-1,0-2-2.9-5-8.5c-0.5,0-1.1,9.7-1.4,13.4l-1.8,0.1c-1.4,0-2.5-0.4-2.5-2.9c0-7.6,1.1-20.5,1.1-32.8c0-1.3-0.1-2.7-0.1-4
		c0.5-0.4,0.9-0.5,1.6-0.5c0.4,0,0.7,0,1.1,0.1l7.2,22.6l9.7-24.4c0.1-0.1,0.1-0.1,0.2-0.1c0.6,0,1.6,1.2,1.9,2.3
		c-0.4,6.5-1.1,14.3-1.1,24.7c0,4.5,0.1,9.4,0.5,14.9c0,0.4-0.2,0.7-0.5,0.7c-0.6,0-1.7-0.6-2.4-0.8C250,88.7,249.9,85.5,249.9,82.4
		z"/>
	<path d="M262.7,64c0,1.8,0.1,3.9,0.1,5.5c2.1-0.8,4.7-2.2,6.5-2.2c1.2,0,1.4,0.9,1.4,1.8c-0.1,6-0.1,6.1-2.8,6.7
		c-2.1,0.8-3.4,1.4-5.1,2c0,1.9,0.1,2.9,0.1,5.2c2.6,0,5.6-0.4,9.2-0.7h0.6c1.4,0,1.7,0.5,1.7,1c0,8.3-2.1,8.4-4.4,8.4h-0.6
		c-3.9,0.2-6.4,0.4-10.9,0.4c-0.3-4.1-0.4-9.9-0.4-15.9c0-8.8,0.3-18.2,0.5-22.9c0.1-1.9,10.1-3.4,15-3.4c1.4,0,1.8,0.8,1.8,1.7
		c0,8.2-3.1,8.9-6.4,8.9h-2c-1.6,0-3.1,0.1-4.1,1.2C262.7,62.5,262.7,63.2,262.7,64z"/>
	<path d="M300.1,25.8c3.1,0,3.5,1.5,3.5,3.7c0,4.2-0.1,9.9-2,10.3c-3.4,1-10.7,1.4-14.5,4c-0.1,3.3-0.5,9-0.5,12.7v1.2
		c1.4-0.3,9.7-4.3,12.5-4.3c1.4,0,1.5,1.4,1.5,4.4v1c0,10.5-2.2,6.1-13.6,13c-0.7,3.6,0.4,20.2-3.1,20.2c-2.1,0-2.6-2.9-2.6-11.2
		c0-13,0.9-36,1.9-50.1C283.3,28.9,294.6,25.8,300.1,25.8z"/>
	<path d="M313.8,29.9c1.1,0,2.1,0.5,2.9,1.3c-0.6,5.7-0.7,11.9-0.7,18.2c0,11.8,0.5,24,0.5,35.5c0,4.3-0.5,8.3-4.1,8.3
		c-0.9,0-1.7-0.4-2.4-1c-0.1-4.6-0.7-18.5-0.7-32.9c0-10.1,0.3-20.4,1.5-27.8C311.5,30.4,312.7,29.9,313.8,29.9z"/>
	<path d="M341.4,52.2c2.6-5.2,6.4-13.6,6.4-18.4v-0.8c2.1-1.5,5.5-3.5,7.5-4.5c-0.1,8.8-4.7,21.5-9.6,30.4c2.2,5.3,5.7,9.1,8.5,18.5
		c-1.1,6.1-1.8,9.7-3,14.8h-4c-2.4-6.3-6.3-12.8-7.4-16c-0.6,2-2,6.1-3.1,9.8c-2.2,2.2-3.9,3.2-6.9,5l-0.4,0.2
		c0.7-7.4,3.9-17.9,5.9-23c-3.6-6-11.4-17.2-11.4-23.9c0-5.5,1.6-11.5,3.9-15.1C332.3,34.1,335.7,41.9,341.4,52.2z"/>
</g>
</svg>
