<?xml version="1.0" encoding="utf-8"?>
<!-- Generator: Adobe Illustrator 26.0.2, SVG Export Plug-In . SVG Version: 6.00 Build 0)  -->
<svg version="1.1" id="Capa_1" xmlns="http://www.w3.org/2000/svg" xmlns:xlink="http://www.w3.org/1999/xlink" x="0px" y="0px"
	 width="76.8px" height="91px" viewBox="0 0 76.8 91" style="enable-background:new 0 0 76.8 91;" xml:space="preserve">
<style type="text/css">
	.st0{fill:#E62E1F;}
	.st1{opacity:0.2;}
	.st2{fill:#231F20;}
	.st3{fill:#4F5D73;}
	.st4{fill:#FFFFFF;}
	.st5{enable-background:new    ;}
	.st6{fill:#FFFFFF;stroke:#000000;stroke-width:0.25;stroke-miterlimit:10;}
</style>
<g>
	<g>
		<circle class="st0" cx="39.4" cy="33.3" r="32"/>
	</g>
	<g class="st1">
		<path class="st2" d="M57.3,47.5L43.2,33.4c-1-1-2.5-1.4-3.8-1l-8.1-8l-3-5.9l-5.9-3l-2.9,2.8l3,5.9l5.9,3l0,0l8.1,8
			c-0.4,1.3,0,2.8,1,3.8l14.1,14.1c1.6,1.6,4.1,1.6,5.7,0C58.9,51.6,58.9,49.1,57.3,47.5z"/>
	</g>
	<g>
		<polygon class="st3" points="41.9,38.6 25.8,22.7 28.7,19.9 44.8,35.8 		"/>
	</g>
	<g>
		<path class="st3" d="M57.3,51.2c-1.6,1.6-4.1,1.6-5.7,0L37.5,37.1c-1.6-1.6-1.6-4.1,0-5.7l0,0c1.6-1.6,4.1-1.6,5.7,0l14.1,14.1
			C58.9,47.1,58.9,49.6,57.3,51.2L57.3,51.2z"/>
	</g>
	<g class="st1">
		<path class="st2" d="M60.7,19.7l-6.5,6.5c-1.6,1.6-4.1,1.6-5.7,0c-1.6-1.6-1.6-4.1,0-5.7L55,14c-1.1-0.4-2.3-0.7-3.6-0.7
			c-5.5,0-10,4.5-10,10c0,1.3,0.3,2.5,0.7,3.6l-11,11c-1.2-0.3-2.4-0.6-3.7-0.6c-5.5,0-10,4.5-10,10c0,1.3,0.3,2.5,0.7,3.6l6.5-6.5
			c1.6-1.6,4.1-1.6,5.7,0s1.6,4.1,0,5.7l-6.5,6.5c1.1,0.4,2.4,0.7,3.6,0.7c5.5,0,10-4.5,10-10c0-1.3-0.3-2.5-0.7-3.6l11-11
			c1.1,0.4,2.4,0.7,3.6,0.7c5.5,0,10-4.5,10-10C61.4,22,61.1,20.8,60.7,19.7z"/>
	</g>
	<g>
		
			<rect x="30.9" y="29.3" transform="matrix(0.7071 -0.7071 0.7071 0.7071 -11.9783 37.6115)" class="st4" width="17.1" height="8"/>
	</g>
	<g>
		<polygon class="st3" points="28.4,25.2 22.5,22.2 19.5,16.3 22.3,13.4 28.2,16.5 31.3,22.4 		"/>
	</g>
	<g>
		<g>
			<path class="st4" d="M54.2,24.1c-1.6,1.6-4.1,1.6-5.7,0c-1.6-1.6-1.6-4.1,0-5.7l6.5-6.5c-1.1-0.3-2.3-0.6-3.6-0.6
				c-5.5,0-10,4.5-10,10s4.5,10,10,10s10-4.5,10-10c0-1.3-0.3-2.5-0.7-3.6L54.2,24.1z"/>
		</g>
	</g>
	<g>
		<g>
			<path class="st4" d="M24.6,42.5c1.6-1.6,4.1-1.6,5.7,0s1.6,4.1,0,5.7l-6.5,6.5c1.1,0.4,2.4,0.7,3.6,0.7c5.5,0,10-4.5,10-10
				s-4.5-10-10-10s-10,4.5-10,10c0,1.3,0.3,2.5,0.7,3.6L24.6,42.5z"/>
		</g>
	</g>
</g>
<g id="Layer_2">
</g>
<g class="st5">
	<path class="st6" d="M0,67.2h9.1v4.1H5.4v3.9h3.3v3.9H5.4v8.6H0.1L0,67.2L0,67.2z"/>
	<path class="st6" d="M15.5,67.2v2.7h-5.3v-2.7H15.5z M15.5,70.9v16.8h-5.3V70.9H15.5z"/>
	<path class="st6" d="M27.5,70.9l-2,8l2.5,8.8h-5c-0.5-2.2-0.9-4.1-1.1-5.7c-0.3,2-0.7,3.9-1.1,5.7h-4.3l2.2-8.8l-2.2-8h4.3
		c0.7,3.4,1.1,5.4,1.1,5.9c0.5-2.9,0.9-4.8,1.1-5.9C23,70.9,27.5,70.9,27.5,70.9z"/>
	<path class="st6" d="M32.1,89.7h14.7V91H32.1V89.7z"/>
	<path class="st6" d="M62.6,67.2v13.4h1.5v3.5h-1.5v3.6h-5.1v-3.6h-6.1v-3.5l4.4-13.4C55.8,67.2,62.6,67.2,62.6,67.2z M57.4,80.6
		v-8.7l-2.3,8.7H57.4z"/>
	<path class="st6" d="M76.8,70.9v16.8h-5.2l0.1-1.4c-0.4,0.6-0.8,1-1.3,1.3c-0.5,0.3-1.1,0.4-1.8,0.4c-0.8,0-1.4-0.1-1.9-0.4
		s-0.9-0.6-1.1-1.1s-0.4-0.9-0.5-1.4S65,83.6,65,82.2V70.9h5.1v11.5c0,1.3,0,2.1,0.1,2.3c0.1,0.2,0.3,0.4,0.7,0.4s0.6-0.1,0.7-0.4
		c0.1-0.3,0.1-1.1,0.1-2.5V70.9H76.8z"/>
</g>
</svg>
