<?xml version="1.0" encoding="utf-8"?>
<!-- Generator: Adobe Illustrator 26.0.2, SVG Export Plug-In . SVG Version: 6.00 Build 0)  -->
<svg version="1.1" id="Capa_1" xmlns="http://www.w3.org/2000/svg" xmlns:xlink="http://www.w3.org/1999/xlink" x="0px" y="0px"
	 width="1200px" height="720px" viewBox="0 0 1200 720" style="enable-background:new 0 0 1200 720;" xml:space="preserve">
<style type="text/css">
	.st0{fill:#1D1D1B;stroke:#1D1D1B;stroke-miterlimit:10;}
	.st1{fill:#079BD5;}
	.st2{fill:#FFFFFF;stroke:#1D1D1B;stroke-miterlimit:10;}
</style>
<g>
	<path class="st0" d="M302,196.2l22,86.2l9.7-46.4v51l-25.9,118.9H302l-43.5-176.6c-1.5-6-3-9.8-4.6-11.9c-1-1.3-2.6-2.4-5-3
		c-4.8-1.5-7.3-4.6-7.3-9.5c0-2.7,0.7-4.8,2.1-6.2c1.4-1.5,3.4-2.2,6-2.2H302L302,196.2L302,196.2z M258.7,266.8l11.9,46.3v46.2
		c0,4.6,0.1,8.2,0.4,10.1c0.3,2.1,0.8,4.3,1.8,6.7c1.5,4.5,3.7,7.9,6.4,10.1l4.1,3.6c2.9,2.4,4.2,4.9,4.2,7.9c0,5.2-2.8,7.9-8.4,7.9
		H251c-5.6,0-8.4-2.7-8.4-7.7c0-1.6,0.3-3,0.7-3.7c0.6-0.9,1.4-1.9,2.9-3c8.4-6.1,12.4-16.8,12.4-32L258.7,266.8L258.7,266.8
		L258.7,266.8z M343.2,196.2h49.6h3c5.6,0,8.4,2.7,8.4,8c0,4.2-1.5,7-4.5,8.3c-2.5,1.2-3.9,1.9-4.3,2.1c-0.4,0.3-0.8,0.9-1.3,1.8
		c-1,1.6-1.4,4.2-1.4,7.9v153.6c0,3.6,0.4,6.2,1.4,7.9c0.4,0.9,0.8,1.5,1.3,1.8c0.4,0.3,1.9,1,4.3,2.1c3,1.3,4.5,4,4.5,8.3
		c0,5.4-2.8,8-8.4,8h-3H343h-3.7c-3.2,0-5.7-0.7-7.4-2.1c-1.7-1.5-2.5-3.4-2.5-6.2c0-4.5,1.8-7.3,5.3-8.5c2.9-1,4.6-1.6,5.2-1.9
		c0.6-0.3,1.1-0.9,1.5-1.8c1.1-1.9,1.7-4.8,1.7-8.8L343.2,196.2L343.2,196.2z"/>
	<path class="st0" d="M459.6,235.2l5.7,31.8l-19.8,99.2c-0.6,3-1,5.5-1,8c0,6.4,2.2,11,6.6,13.8l3.9,2.5c2.5,1.6,3.7,4,3.7,7.7
		c0,5.1-2.8,7.7-8.2,7.7h-28.4c-2.8,0-4.9-0.7-6.6-2.4c-1.7-1.6-2.5-3.7-2.5-6.5c0-3,1.7-5.4,4.9-7.4c3-1.9,5.3-3.4,6.8-4.9
		s2.9-3.4,4.2-6.1c2.1-4.2,3.8-9.7,5.2-16.7L459.6,235.2z M467.5,196.2h45.1l31.2,180.4c0.6,3.1,1.3,6,2.1,8.5
		c0.7,1.9,2.2,3.4,4.5,4.8c1.9,1.2,3.2,2.2,3.9,3.3c0.7,1.2,1.1,2.7,1.1,4.6c0,5.4-2.9,8-8.8,8h-55.8c-2.2,0-3.9-0.7-5.3-2.2
		c-1.4-1.5-2.1-3.4-2.1-6c0-2.1,0.3-3.6,1-4.6c0.6-1,1.9-2.4,3.9-3.7c1.5-1,2.6-2.2,3.1-3.3c0.6-1.2,1-2.8,1-4.6
		c0-1.8-0.1-3.3-0.3-4.6l-3.5-22.2h-31.2l3-18.3h25l-20.7-124.7L467.5,196.2z"/>
	<path class="st0" d="M580.9,250l11.9,27.1v82.2c0,7.1,0.8,13.1,2.6,17.7c1.8,4.6,4.5,8.5,8.4,11.3l3.4,2.7c1.9,1.6,2.9,3.7,2.9,7
		c0,2.4-0.7,4.3-2.2,5.8c-1.3,1.3-3.7,2.1-7.4,2.1h-25.9c-6.8,0-10.1-2.7-10.1-8c0-1.9,0.4-3.3,1.1-4.3c0.7-1,2.2-2.5,4.6-4.3
		c7.1-5.4,10.8-15.2,10.8-29.6L580.9,250L580.9,250z M627.6,196.2L687.1,338v67.7h-30.5l-75.9-179.5c-1.7-3.9-3-6.5-3.9-8.2
		c-1.1-1.6-2.4-2.7-3.9-3.3l-4.2-2.2c-1.1-0.6-2.1-1.5-2.8-2.8c-0.7-1.3-1-2.8-1-4.5c0-1.8,0.3-3.3,1-4.8c0.7-1.5,1.5-2.5,2.8-3.1
		c1.3-0.7,4.6-1,10.2-1H627.6z M687.2,313.5L675.3,286v-42.6c0-8.6-1-15.1-2.8-19.8c-1.8-4.5-5-8.5-9.7-11.8c-1.5-1-2.6-2.2-3.2-3.3
		c-0.6-1.2-1-2.7-1-4.5c0-2.8,0.7-4.8,1.9-6.1c1.4-1.3,3.4-1.9,6.3-1.9h28c3.8,0,6.3,0.9,7.5,2.5c1.3,1.6,1.9,3.6,1.9,5.8
		c0,2.2-0.4,3.7-1.1,4.8c-0.7,1-2.5,2.5-5,4.3c-3.9,2.8-7,7-8.9,12.8c-1.4,4.2-2.2,9.8-2.2,17v70.1L687.2,313.5L687.2,313.5
		L687.2,313.5z"/>
	<path class="st0" d="M779.2,405.6h-49.9h-2.9c-2.8,0-4.8-0.7-6.2-2.1c-1.5-1.5-2.2-3.3-2.2-6c0-4.2,1.5-7,4.5-8.3
		c2.5-1.2,3.9-1.9,4.3-2.1c0.4-0.3,0.8-0.9,1.3-1.8c1-1.6,1.4-4.2,1.4-7.9V224.2c0-3.6-0.4-6.2-1.4-7.9c-0.4-0.9-0.8-1.5-1.3-1.8
		c-0.4-0.3-1.9-1-4.3-2.1c-3-1.3-4.5-4-4.5-8.3c0-2.7,0.7-4.5,2.2-6s3.5-2.1,6.2-2.1h2.9h49.9h2.9c2.8,0,4.8,0.7,6.2,2.1
		c1.5,1.5,2.2,3.3,2.2,6c0,4.2-1.5,7-4.5,8.3c-2.5,1.2-3.9,1.9-4.3,2.1c-0.4,0.3-0.8,0.9-1.3,1.8c-1,1.6-1.4,4.2-1.4,7.9v153.6
		c0,3.6,0.4,6.2,1.4,7.9c0.4,0.9,0.8,1.5,1.3,1.8c0.4,0.3,1.9,1,4.3,2.1c3,1.3,4.5,4,4.5,8.3c0,2.7-0.7,4.5-2.2,6
		c-1.5,1.5-3.5,2.1-6.2,2.1h-2.9L779.2,405.6L779.2,405.6z"/>
	<path class="st0" d="M804.4,196.2h29.4v18.6c-3.5,2.8-6.3,6.2-8.2,10.6c-3.1,7-5.3,15.2-6.4,24.7l-1.1,9.2c-0.4,3-1.3,5.2-2.5,7
		c-1.3,1.8-2.8,2.5-4.6,2.5c-1.9,0-3.5-0.9-4.8-2.8c-1.3-1.9-1.9-4.2-1.9-7.3V196.2L804.4,196.2z M892.5,196.2v180.4
		c0,3.9,0.6,6.8,1.7,8.6c0.6,1,1.1,1.6,1.7,1.9c0.6,0.3,2.2,0.9,5.2,1.9c3.5,1.2,5.3,3.9,5.3,8.5c0,2.7-1,4.8-2.9,6.4
		c-1.4,1.2-3.8,1.9-7.1,1.9h-3.7h-50H839c-3.2,0-5.7-0.7-7.4-2.1c-1.7-1.5-2.5-3.4-2.5-6.2c0-4.5,1.8-7.3,5.3-8.5
		c2.9-1,4.6-1.6,5.2-1.9c0.6-0.3,1.1-0.9,1.5-1.9c1.1-1.8,1.7-4.6,1.7-8.6V196.2H892.5z M931.2,196.2V259c0,3-0.7,5.4-1.9,7.3
		s-2.9,2.8-4.8,2.8c-1.9,0-3.4-0.9-4.6-2.5c-1.3-1.8-2.1-4-2.5-7l-1-9.5c-1.1-9.5-3.2-17.7-6.4-24.7c-2.1-4.3-4.8-7.9-8.2-10.6
		v-18.5L931.2,196.2L931.2,196.2z"/>
	<path class="st0" d="M982,235.2l5.7,31.8L968,366.1c-0.6,3-1,5.5-1,8c0,6.4,2.2,11,6.6,13.8l3.9,2.5c2.5,1.6,3.7,4,3.7,7.7
		c0,5.1-2.8,7.7-8.2,7.7h-28.4c-2.8,0-4.9-0.7-6.6-2.4c-1.7-1.6-2.5-3.7-2.5-6.5c0-3,1.7-5.4,4.9-7.4c3-1.9,5.3-3.4,6.8-4.9
		s2.9-3.4,4.2-6.1c2.1-4.2,3.8-9.7,5.2-16.7L982,235.2z M989.8,196.2h45.1l31.2,180.4c0.6,3.1,1.3,6,2.1,8.5
		c0.7,1.9,2.2,3.4,4.5,4.8c1.9,1.2,3.2,2.2,3.9,3.3c0.7,1.2,1.1,2.7,1.1,4.6c0,5.4-2.9,8-8.8,8h-55.8c-2.2,0-3.9-0.7-5.3-2.2
		c-1.4-1.5-2.1-3.4-2.1-6c0-2.1,0.3-3.6,1-4.6c0.6-1,1.9-2.4,3.9-3.7c1.5-1,2.6-2.2,3.1-3.3c0.6-1.2,1-2.8,1-4.6
		c0-1.8-0.1-3.3-0.3-4.6l-3.5-22.2h-31.2l3-18.3h25l-20.7-124.7L989.8,196.2z"/>
	<path class="st0" d="M1138.3,192v17.7c-4.6,1.8-8.2,4.3-10.5,8c-2.5,3.6-3.7,8.2-3.7,13.4c0,5.1,1,9.5,3,13.4
		c2.1,3.7,5.3,7.6,9.8,11c3.1,2.4,10.2,6.8,21.3,13.5c6.7,3.9,11.9,7.6,15.5,10.7c3.7,3.1,7.3,7.3,10.5,12.1
		c8.8,12.6,13.3,27.7,13.3,45.3c0,13.2-2.4,25.3-7.1,36.2c-4.8,10.9-11.3,19.6-19.7,25.9c-4.5,3.3-9.4,5.8-14.8,7.7s-10.2,3-14.9,3
		v-17.4c6.4-2.2,11.2-5.1,14.1-9c2.9-3.7,4.3-9,4.3-15.5c0-6.8-2.2-12.9-6.7-18.2c-3-3.3-8.7-7.6-16.9-12.6
		c-9.1-5.5-15.4-9.4-18.9-11.8s-6.7-5.1-9.8-8.3c-14.1-13.7-21-32-21-54.8c0-11.6,1.8-22.3,5.2-32.3c3.5-9.8,8.4-17.9,14.7-23.8
		C1114.5,197.6,1125.4,192.9,1138.3,192z M1132.4,392.3v17.4c-6.2,0-12.9-2.5-20.3-7.3c-2.8-1.8-4.6-3-5.7-3.3
		c-1.1-0.6-2.1-0.7-3-0.7c-1.5,0-2.6,0.3-3.4,1c-0.7,0.7-1.9,2.4-3.5,4.9c-1.4,2.2-2.8,3.3-4.3,3.3c-4.2,0-6.3-4.3-6.3-13.2v-55.9
		c0-3,0.6-5.2,1.8-7.3c1.3-2.1,2.8-3,4.5-3.1c1.7-0.1,2.9,0.6,3.8,1.9c1,1.5,1.8,3.7,2.5,7.3c1.8,8.9,4.2,17,7.4,24.7
		c3.2,7.7,7,14.3,11.3,19.5C1121.6,387.2,1126.7,390.7,1132.4,392.3z M1147.1,209.8v-16.9c4.5,0.4,8.4,1.2,11.6,2.4
		c3.2,1.2,8,3.4,14,7c1.5,0.9,2.8,1.2,3.7,1.2c1.4,0,2.5-0.7,3.1-2.1l2.5-4.5c1.3-2.2,2.6-3.3,4.3-3.3c2.1,0,3.4,1,4.3,3
		c1,2.1,1.4,5.1,1.4,9.4v50.7c0,3-0.7,5.4-1.9,7.3c-1.3,1.9-2.9,3-4.8,3c-1.5,0-2.9-0.7-4.1-2.1c-0.7-0.9-1.3-1.9-1.7-3
		c-0.4-1.2-0.8-3.1-1.3-6c-0.8-5.1-2.2-10.1-4.2-15.5s-4.3-10-7.1-14.3C1162,217.9,1155.3,212.4,1147.1,209.8z"/>
</g>
<g>
	<path class="st1" d="M492.1,496.8l-26.4,5.2l0.4,1.9c0.7,3.7,2.4,7,4.9,9.5c2.6,2.7,5,3.6,7.5,3.1c2.5-0.6,6-2.2,10.4-5.1
		c4.3-3,9.2-6.8,14.7-11.6l2.2-2.2c1.5-1.3,2.6-2.4,3.1-3c2.5-2.5,4.1-3.7,4.8-3.9c0.8-0.1,1.5,0.6,1.8,2.4c0.3,1.9,0.4,4,0.1,6.5
		c-0.1,2.5-0.6,4.9-1.1,7.3c-0.6,2.4-1.3,4-2.1,5.2c-2.4,3.1-6.4,7-12.6,11.3c-6.2,4.3-12.4,8.2-18.9,11.3c-2.2,1-4.2,1.6-6.2,2.1
		c-6.6,1.3-12.9,1.2-18.9-0.6c-6-1.8-10.9-4.8-14.8-9.1c-3.9-4.3-6.4-9.5-7.5-15.6c-1-4.9-1-10.7,0-17.1c0.8-6.4,2.6-13.1,5-19.8
		c2.5-6.7,5.5-13.1,9.1-18.9c3.1-5.1,6.8-9.8,10.9-14.4c4.2-4.5,8.4-8.2,12.6-10.9c4.2-2.8,8.2-4.6,12-5.4c6-1.2,11.3-0.4,16.2,2.4
		c4.9,2.8,7.8,6.7,8.8,11.8c0.4,2.2,0.4,4.8,0.1,7.6c-0.3,2.8-1,5.4-1.8,7.6c-1,2.5-2.6,4.9-4.9,7.6c-2.4,2.7-4.9,4.9-8,7.1
		c-3.7,2.5-7,4-9.8,4.6c-2.9,0.6-4.3,0.1-4.6-1.3c-0.1-0.9,0.4-2.4,1.7-4.5c1.5-2.1,2.8-4.5,3.8-7.7c1-3.3,1.7-7.1,2.2-11.5
		c0.4-4.3,0.4-7.7,0-9.8c-0.3-1.9-1.1-2.8-2.1-2.5c-1.7,0.3-4.3,3-8.1,7.7c-3.7,4.8-6.4,9.4-8.4,13.8c-1.8,4-3,8.2-3.9,12.2
		c-0.8,4-1.3,7.9-1.1,11.6l38.6-7.9c4.2-0.9,6.6-0.1,7,2.2c0.4,2.2-1.4,6.1-5.2,11.9C499.9,492.8,495.9,495.9,492.1,496.8z"/>
	<path class="st1" d="M558.6,502.1l-0.7,0.9c-0.1,0.3-0.6,0.7-1,1.3s-0.8,1.2-1.1,1.6c-4.5,6.5-8,11-10.2,13.5
		c-2.4,2.5-4.6,3.9-6.8,4.3c-2.9,0.6-5.5,0.1-7.7-1.3c-2.2-1.4-3.5-3.6-4.1-6.4c-0.6-3.1,0.1-6.4,2.2-9.5c0.6-0.9,2.1-2.8,4.3-5.7
		c3.7-4.5,6.3-7.9,7.8-9.8c1.5-2.4,2.9-4.8,4.1-7c-2.8-4.2-5.5-7.9-8.2-11.2c-1.7-1.9-3.2-3.7-4.6-5.4c-2.1-2.2-3.9-3.7-5.7-5.2
		c-1.8-1.3-3.5-2.4-5.2-3.1c-2.1-0.7-3.2-1.8-3.4-2.8c-0.1-1,0.6-2.1,2.4-3c1.8-1.2,3.9-1.9,6.7-2.5c6.4-1.3,12.2-0.7,17.5,1.9
		c1.4,0.7,2.6,1.3,3.7,1.9c1.1,0.6,2.4,1.5,3.9,2.7c1.7,1.2,3.2,2.4,4.9,3.4c2.9-6.1,6-11,9.1-14.7c3.2-3.6,6.3-5.8,9.2-6.4
		c2.1-0.4,3.9-0.4,6,0c1.9,0.4,3,1.2,3.1,2.1c0.4,1.9,0,4.3-1.1,7.4c-1.1,3-3,7-5.7,12.1c-2.4,4.3-3.5,7-4.1,7.9
		c-0.4,0.9-1.3,3-2.5,6.1l22.4,25.7c1.3,1.5,2.1,3,2.2,4c0.4,2.1-0.8,4.3-3.5,6.8c-2.8,2.5-6,4-9.5,4.8c-6.6,1.3-12-0.1-16.4-4.5
		C564.7,509.9,561.9,506.5,558.6,502.1z"/>
	<path class="st1" d="M628.4,452.9l1.5-4.9c1.4-4.3,2.8-8.2,4.1-11c1.4-3,2.6-5.2,3.7-6.8c1.3-1.5,2.6-3,4.5-4c1.5-1,3.1-1.8,5-2.1
		c3.7-0.7,7.1-0.3,10.4,1.5c3.2,1.8,6,4.6,8.4,8.6c2.4,3.9,3.9,8.8,4.9,14.4c1.5,8,1.1,16.1-1,24.1c-2.1,8.2-5.5,15-10.1,20.7
		c-4.6,5.7-9.9,9.1-15.8,10.3c-3.4,0.7-6.4,0.4-9-0.6c-2.6-1-5.2-3.3-7.8-6.7l-0.3,1.5l-0.1,1.8c-1.3,11.3-2.4,19.8-3.2,25.1
		c-1,5.4-2.1,8.9-3.1,10.1c-0.8,1.3-2.1,2.1-3.4,2.4c-2.8,0.6-5.2-0.4-7.3-3s-3.5-6.4-4.5-11.6c-1-5.7-1.7-12.5-1.9-20.7
		c-0.3-8.2-0.1-16.4,0.4-25c0.6-8.6,1.5-16.5,2.8-23.7c1-4.3,2.1-8.5,3.4-11.8c1.4-3.4,2.9-6.1,4.3-7.9c1.1-1,2.5-1.8,3.9-2.1
		c2.2-0.4,3.9-0.1,5.5,0.9c1.4,1,2.4,2.8,2.8,5.1c0.4,2.1,0.6,4.2,0.7,6.7c0.1,2.5,0.4,5.2,0.7,8.3L628.4,452.9z M628.8,486.5
		c2.1,3.9,5,5.5,8.8,4.8c2.6-0.6,4.9-2.4,6.7-5.4s3-6.8,3.7-11.3c0.6-4.6,0.4-9.2-0.4-14.1c-0.7-3.7-1.5-7-2.6-9.5
		c-1.1-2.7-1.9-3.9-2.6-3.7c-0.6,0.1-1.5,1.8-3,4.8c-1.5,3-2.9,6.7-4.2,10.6c-2.8,7.9-4.8,14.6-5.9,20.4
		C629.1,484.4,629,485.7,628.8,486.5z"/>
	<path class="st1" d="M704.8,465.1v1.6c0.1,0.9,0.3,2.2,0.4,3.7c0.3,2.7,0.4,4.6,0.3,6.2c0,1.6-0.3,3-0.8,4.2
		c-0.5,1.2-1.3,2.5-2.2,3.9c-2.9,4.2-6.2,6.5-9.7,7.3c-2.9,0.6-5.2-0.1-7-2.1c-1.8-2.1-3.1-5.5-3.9-10.4c-0.7-3.9-1.3-9-1.4-15
		c-0.3-6-0.1-11.5,0.3-16.4l0.3-2.2c0-0.3,0-1,0.1-2.1c0.6-7.3,1.3-12.8,2.2-16.4c0.8-3.6,2.2-6.7,3.9-9.1c1.7-2.1,3.5-3.1,5.9-3.6
		c3.4-0.7,5.9,1,7.4,5.4c0.6-0.7,1.1-1.6,1.5-2.7c1.1-2.1,1.9-3.4,2.6-4.2c0.7-0.7,1.5-1.2,2.5-1.5c4.1-0.9,7,3,8.7,11.8
		c0.8,4.8,1.3,9.4,1.1,14.1c-0.1,4.6-0.7,8.6-1.7,11.6s-2.2,4.8-3.5,5.1c-1.7,0.3-3-2.8-4.1-9.1c-0.6-3.3-1.3-6-1.9-7.9
		c-0.7-1.9-1.5-3.1-2.5-4.2c-1,3.1-0.7,9.8,0.7,20.2C704.2,459.7,704.6,463.5,704.8,465.1z"/>
	<path class="st1" d="M753.7,457.2c1.1,3,3.2,4,6.4,3.4c3.5-0.7,8-3.9,12.9-9.5c2.9-3.3,4.9-5.1,6-5.2c1.5-0.3,2.9-0.1,4.2,0.4
		c1.4,0.6,2.2,1.3,2.4,2.2c0.2,0.9-0.3,2.4-1.5,4c-2.1,3.1-4.5,6.5-7.4,9.7c-2.9,3.2-5.6,6.1-8.5,8.5c-2.8,2.4-5.6,4.3-8.5,6
		c-2.9,1.6-5.6,2.7-8,3.1c-6,1.2-11.2,0.4-15.4-2.7c-4.2-3-7-7.4-8.1-13.5c-0.8-4.6-0.8-10.1,0-16.2c0.8-6.2,2.5-12.2,4.8-18
		c2.8-6.8,6.4-12.6,11.3-17.9c6-6.2,12-9.8,18.3-11.2c4.5-0.9,8.4-0.1,11.5,2.4c3.1,2.5,5.2,6.4,6.2,11.8c0.7,4.2,0.6,8.8-0.7,13.7
		c-1.3,4.9-3.4,9.8-6.7,14.9c-2.6,4.2-5.3,7.6-8.2,10c-2.8,2.7-5.3,4-7.8,4.6C756.1,457.6,754.8,457.5,753.7,457.2z M753,454.8
		c1.9-2.1,3.2-3.9,4.2-5.8c1.9-3.7,3.2-8,3.8-12.6c0.6-3,1-6.4,1-10s-0.3-7-0.8-9.8c-0.6-2.8-1.4-4-2.5-3.9c-1.5,0.3-3.2,4.3-5,12.2
		c-1.1,4.8-1.8,9.4-2.2,14c-0.4,4.5-0.3,8.5,0.3,11.5C751.9,451.4,752.3,452.9,753,454.8z"/>
	<path class="st1" d="M817.7,469.7c2.9-0.7,5.2-2.8,7-6c1.8-3.1,2.5-6.5,1.9-9.7c-0.4-2.2-1.4-3.9-3-4.9c-1.8-1.3-5.5-2.2-10.9-2.7
		c-8.1-0.7-13.6-2.5-16.4-4.8c-2.6-1.9-4.2-4.5-4.8-7.9c-1.1-5.8-0.1-12.2,2.9-18.9c3-6.7,7.3-12.5,12.9-17.6
		c5.6-5.1,11.5-8.2,17.9-9.4c3.1-0.6,6.2-0.4,9,0.6c3,1,5.5,2.7,7.5,4.8c2.1,2.2,3.2,4.8,3.8,7.7c0.6,3,0.1,6.1-1,9.5
		c-1.3,3.4-2.9,6.5-5.2,9.1c-2.2,2.7-4.5,4.2-7,4.6c-1.4,0.3-2.6,0.1-3.7-0.1c-1.1-0.4-1.8-1-1.8-1.8c-0.1-0.7-0.1-1.8,0-3.1
		c0.3-4.6,0.1-8.6-0.6-11.8c-0.6-3.1-2.1-6.1-4.3-8.6c-2.1,2.2-3.2,3.9-3.8,5.1c-1.4,2.7-2.4,5.5-2.9,8.6c-0.6,3.1-0.7,6-0.1,8.6
		c0.3,1.9,1,3.1,2.1,4.2c1,0.9,2.5,1.6,4.3,2.1c1.9,0.4,4.8,0.7,8.7,0.9c6.4,0.3,10.9,1,13.8,2.1c0.7,0.3,1.7,0.9,3,1.8
		c2.2,1.8,3.5,4.2,4.2,7.6c0.7,3.4,0.3,7.3-1.3,11.3c-1.4,4-3.9,8.5-7.5,13.1c-3.8,5.1-8,9-12.2,11.8c-4.2,2.8-9.1,4.6-14.7,5.8
		c-5.3,1-9.7,0.9-13.3-0.9c-3.4-1.6-5.6-4.3-6.3-8.3c-0.6-2.8,0-5.8,1.5-9c1.5-3.1,3.5-6.1,6.3-8.5c2.8-2.5,5.5-3.9,8.4-4.5
		c2.2-0.4,3.2-0.1,3.5,0.9c0.1,0.6-0.1,1.5-0.6,2.8c-1.3,3.9-1.7,7.4-1.1,10.4C814.7,466.3,815.8,468.1,817.7,469.7z"/>
	<path class="st1" d="M883.8,456.3c2.9-0.7,5.2-2.8,7-6c1.8-3.2,2.5-6.5,1.9-9.7c-0.4-2.2-1.4-3.9-3-4.9c-1.8-1.3-5.5-2.2-10.9-2.7
		c-8.1-0.7-13.6-2.5-16.4-4.8c-2.6-1.9-4.2-4.5-4.8-7.9c-1.1-5.8-0.1-12.2,2.9-18.9c3-6.7,7.3-12.5,12.9-17.6
		c5.6-5.1,11.5-8.2,17.9-9.4c3.1-0.6,6.2-0.4,9,0.6c3,1,5.5,2.7,7.5,4.8c2.1,2.2,3.2,4.8,3.8,7.7c0.6,3,0.1,6.1-1,9.5
		c-1.3,3.4-2.9,6.5-5.2,9.1c-2.4,2.7-4.5,4.2-7,4.6c-1.4,0.3-2.6,0.1-3.7-0.1c-1.1-0.4-1.8-1-1.8-1.8c-0.1-0.7-0.1-1.8,0-3.1
		c0.3-4.6,0.1-8.6-0.6-11.8c-0.6-3.1-2.1-6.1-4.3-8.6c-2.1,2.2-3.2,3.9-3.8,5.1c-1.4,2.7-2.4,5.5-2.9,8.6c-0.6,3.1-0.7,6-0.1,8.6
		c0.3,1.9,1,3.1,2.1,4.2c1,0.9,2.5,1.6,4.3,2.1c1.9,0.4,4.8,0.7,8.7,0.9c6.4,0.3,10.9,1,13.8,2.1c0.7,0.3,1.7,0.9,3,1.8
		c2.2,1.8,3.5,4.2,4.2,7.6c0.7,3.4,0.3,7.3-1.3,11.3c-1.4,4-3.9,8.5-7.5,13.1c-3.8,5.1-8,9-12.2,11.8c-4.2,2.8-9.1,4.6-14.7,5.8
		c-5.3,1-9.7,0.9-13.3-0.9c-3.4-1.6-5.6-4.3-6.3-8.3c-0.6-2.8,0-5.8,1.5-9c1.5-3.1,3.5-6.1,6.3-8.5c2.8-2.5,5.5-3.9,8.4-4.5
		c2.2-0.4,3.2-0.1,3.5,0.9c0.1,0.6-0.1,1.5-0.6,2.8c-1.3,3.9-1.7,7.4-1.1,10.4C880.9,452.7,882,454.6,883.8,456.3z"/>
</g>
<g>
	<g>
		<path class="st0" d="M165.7,309.2c-6.6-3.1-14.1-3.5-21.2-2.4l0,0l0.2,7.1l0.6,19.4l0.2,5.1H138l0.1,1.3l-1.3,0.1
			c1.3,0.1,2.7,0.2,3.9,0.3c1.6,0.1,3.1,0.2,4.7,0.3c4.1,0.6,8.3,1.9,11.5,5c5.3,4.9,7.2,12.9,7.2,20.4c-0.1,6.2-0.1,13.8-2.8,19.4
			c-1.5,3.1-3.5,5.9-4.4,9.2c-0.8,2.9-0.6,5.9-0.4,8.9c0.2,4,0.5,8,0.8,12.1c0.3,4.3,0.6,8.9,2.6,12.7c3,6.1,9.7,9.4,16.3,9.5
			c5,0.1,10.1-3.9,12.8-8.7c1.3-2.5,1.6-6.1,2-9c0.3-2.4,0.7-4.6,1.3-6.6c0.2-0.6,0.2-1.1,0.3-1.7c-0.3-0.1-0.6-0.2-0.9-0.3
			c-1.2-0.7-2.2-1.7-3.3-2.5c-3.4-2.3-7.9-2.2-12-2.1c-1.1,0.1-2.3,0.1-3.1,0.7c-3.3,2-1.8,10.8-1.8,14.2c0,1.1,0.1,2.2,0.4,3.1
			c0.9,2.5,3.4,3.6,5.8,4.3c3.5,0.9,7.2,1.1,10.7,0.4c-4.5,2.2-10,2.1-14.6-0.2c-0.5-0.2-1-0.6-1.5-0.8c-0.9-0.6-1.7-1.2-2.4-2
			c-2.7-3-2-9-2.2-12.8c-0.1-2-0.1-4.1,0.9-5.8c1.6-2.8,5.1-3.4,8.2-3.6c4.7-0.3,9.6-0.2,14.1,1.7c0.9,0.4,1.8,0.9,2.5,1.6
			c3.6-23.3,1.8-48.4-6.4-70.3C182.7,325.7,176.2,314.3,165.7,309.2z M187.7,381.9c-2.3,1.2-5.8,2.1-9.2,1.7
			c-3.4-0.2-6.8-1.7-8.9-3.2c-2.2-1.6-3-3.1-3-3.1s1.6,0.4,4,1.1c1.2,0.4,2.5,0.5,3.9,0.8c1.4,0.2,3,0.5,4.4,0.6
			c3,0.2,6,0.2,8.4,0.1c2.5-0.2,4-0.3,4-0.3S190,380.8,187.7,381.9z M186.8,372.2c-2.3,1.1-5.4,1.9-8.7,2.1
			c-3.2,0.1-6.5-0.4-8.9-1.3c-2.3-0.8-3.7-1.7-3.7-1.7s1.6,0.2,3.9,0.3c1.2,0.2,2.6,0.1,3.9,0.2c1.5,0.1,3,0.1,4.4-0.1
			c3-0.1,6.1-0.5,8.4-0.9c2.4-0.4,3.9-0.7,3.9-0.7S189.1,371.3,186.8,372.2z"/>
		<path class="st0" d="M147.4,395.9c-1.8-1.4-3.8-2.5-6.2-3c-4.4-1.2-9-0.7-13.4-0.4c-11.7,0.7-23-1.4-34.5-2.4
			c-5.9-0.5-11.8-0.8-17.8-0.2c-1.6,0.2-3.3,0.2-4.4-0.9c-0.9-0.9-1-2.3-1.1-3.6c-0.1-1.1-0.1-2.4,0.7-3c0.7-0.6,1.6-0.4,2.5-0.2
			c7,1.3,13.6,3,20.4,3.8c2.3,0.3,4.4,0.5,6.7,0.7c10,0.5,20.1,0.7,30.1,0.7c5.6,0.1,11.3,0,16.8-1c0.2,0,0.2,0,0.4,0
			c4.7-0.9,9.8-2.9,11.9-7.5c0.8-1.8,1-3.7,1.3-5.6c0.3-2.8,0.6-5.5,0.9-8.4c0.2-2.2,0.5-4.4,0.2-6.5c-0.5-4.1-3.1-7.8-6.3-10.3
			c-3-2.3-6.2-3.7-9.7-4.6c-5.1-1.3-10.7-1.6-16-1.7c-11.6-0.2-23,0.6-34.5,1.2c-1.1,0.1-2.1,0.2-3.1,0.2c-1,0.1-2.1,0.1-3-0.4
			c-0.9-0.6-1.3-1.9-0.6-2.7c0.4-0.4,0.9-0.6,1.5-0.7c0.9-0.2,1.9-0.4,2.9-0.6l0.5-7.3l0.2-2.8l0.5-7.3c-7.6,1.6-15.2,2.8-22.9,3.4
			c-10.8,1-23.1,1.9-29.9,10.8c-3,4-4.4,9.1-4.8,14.3c-0.4,5,0,10.2,1.3,15c1.1,4,5.4,7.4,3.7,11.7c-0.9,2.4-2.7,4.1-4.2,6
			c-8.3,10.6-6.4,27.4,1.9,38.1c1.6,2,3.3,4.1,3.2,6.7c-0.2,1.7-1.2,3.2-2,4.8c-4.2,8.5-0.1,18.8,4,27.2c2,4.1,4.6,8.7,9,9.1
			c0.9,0.1,2,0,2.8,0.5c2.4,1.2,1.6,4.9,1.2,7.7c-1.2,7.1,2.8,14,8.3,18.3c1.4,1.1,3,2.1,4.5,2.8c5.5,2.6,12.1,3.4,18.8,3.8
			c4.4,0.2,8.9,0.2,12.9,0.2l19.6,0.2c1.1,0,2.2,0,3.2,0c0.5,0,1.1,0,1.6,0c0.7,0,1.5,0,2.2-0.1c0.5,0,1.1,0,1.6-0.1
			c1.2-0.1,2.3-0.2,3.4-0.2c0.3,0,0.6-0.1,0.9-0.1c0.9-0.1,2-0.2,2.9-0.4c0.2,0,0.4-0.1,0.6-0.1c0.2,0,0.3-0.1,0.4-0.1
			c2.3-0.5,4.4-1.3,6.5-2.2c0.3-0.1,0.5-0.2,0.9-0.3c1.9-0.8,3.6-1.6,5.1-2.9c0.2-0.2,0.5-0.3,0.7-0.6c0.9-0.8,1.6-1.8,2.1-2.9
			c0.5-0.9,0.9-2,1.2-3c0.7-2.3,1.1-4.9,0.7-7.1c-0.5-2.5-1.8-4.7-3.9-5.9c-0.5-0.2-0.9-0.4-1.5-0.6c-3-1.2-6.2-1.5-9.3-1.7
			c-16.7-1-34-3.6-50.8-1.3c-1,0.2-2,0.2-3,0.4c-1.7,0.3-3.4,0.6-5.1-0.1c-1.6-0.7-2.9-2.7-2.3-4.2c0.8-2.2,3.5-2.3,5.7-2
			c1.6,0.2,3.2,0.4,4.8,0.7c9.9,1.4,19.9,2.6,29.7,3.6c10,1.2,20.6,2.2,29.9-2.7c0.5-0.2,0.9-0.4,1.4-0.7c2.2-1.2,4-3,5.4-5.1
			c0-0.1,0.1-0.2,0.1-0.2c0.5-1.2,1-2.3,1.5-3.3c0.1-0.2,0.2-0.3,0.2-0.6c0.9-2.2,1.5-4.5,1.4-7.4c0-2.2-0.4-4-0.9-5.6
			c-2.2-4.1-5.9-5.9-10-6.6c-3.2-0.7-6.7-0.7-9.7-0.7c-15.9-0.5-31.8-1-47.7-1.5c-5.1-0.2-10.2-0.3-15.3-0.5c-2.4-0.8-2.2-5,0-6.5
			c2.1-1.5,4.8-1.2,7.4-0.7c2.8,0.4,5.5,0.7,8.3,1.1c5.4,0.7,10.8,1.2,16.3,1.6c3.8,0.2,7.3,0.4,11.1,0.2c4.1-0.2,8.4-0.3,12.5-0.2
			c1.1,0,2.2,0.2,3.1,0.2c0.9-0.2,1.7,0,2.6,0.1c4.7,0.4,8.4-0.7,11.2-2.7C158.6,422.3,157.7,403.8,147.4,395.9z M154.9,350.5
			c1.3,1.4,2.6,3.4,3.1,5.8c0.7,2.4,0.9,5,0.9,7.5c-0.2,2.6-0.3,4.9-0.8,7.2c-0.4,2.4-1.3,4.6-2.4,6.2c-1.1,1.6-2.6,2.6-3.4,3
			c-1,0.4-1.6,0.4-1.6,0.4s2.2-1.3,3.2-4.4c0.6-1.5,0.9-3.4,1-5.5c0.1-2.2,0.2-4.6,0.2-6.9c0.2-4.6-0.3-9-2-11.8
			c-1.5-3-3.6-4.3-3.6-4.3s0.6,0,1.6,0.4C152.3,348.3,153.8,349.1,154.9,350.5z M149.5,480.9c-0.6-1.4-1.6-2.2-1.6-2.2
			s1-0.1,2.3,0.9c0.2,0.1,0.3,0.2,0.5,0.3c0.6,0.7,1.3,1.7,1.7,2.8c0.3,1.2,0.5,2.5,0.5,3.7c-0.2,1.3-0.5,2.6-1,3.6
			c-0.3,0.7-0.8,1.3-1.2,1.8c-0.2,0.2-0.5,0.6-0.6,0.7c-1.3,1.3-2.5,1.6-2.5,1.6s2.7-3.9,2.8-8C150.5,484.2,150.1,482.3,149.5,480.9
			z M153.6,454.8c0.3-1.5,0.4-2.9,0.3-4.2c-0.1-1.4-0.2-2.7-0.5-3.7c-0.5-2.2-1.1-3.6-1.1-3.6s1.3,1,2.4,3.1c0.5,1.1,1.1,2.5,1.3,4
			c0.2,1.6,0.2,3.3,0,4.9c-0.7,3.4-2.5,6.3-4.2,7.9c-0.8,0.7-1.6,1.2-2.1,1.5c-0.7,0.4-1.2,0.6-1.2,0.6s0.5-0.6,1.2-1.5
			C150.9,461.9,153.1,458.6,153.6,454.8z M151.2,419c-0.4,2.1-1.3,3.8-2.2,5.2c-0.2,0.3-0.5,0.5-0.6,0.7c-0.8,0.9-1.6,1.6-2.3,1.9
			c-0.9,0.4-1.3,0.5-1.3,0.5s1.9-1.2,3-3.9c0.2-0.4,0.3-0.9,0.5-1.3c0.9-2.7,1.3-6,0.9-9.4c-0.2-2.7-0.7-5.3-1.5-7.6
			c-0.4-1.1-0.8-2.2-1.2-3c-1.3-2.7-2.8-4.2-2.8-4.2s2,0.8,3.8,3.3c0,0.1,0.1,0.1,0.1,0.1c2.1,2.6,3.5,6.9,3.9,11.3
			C151.7,414.7,151.6,416.9,151.2,419z"/>
		<path class="st2" d="M133.7,338.4l-9.9-0.1c3.3,0.5,6.6,0.8,9.9,1.2V338.4z"/>
	</g>
	<path class="st1" d="M225.3,128.4l-20.6-0.2c-4.5,0-8.3,3.8-8.3,8.8c0,2.2-1,4.1-2.7,5.3c-19.3,12.9-33.1,3.2-37.4-0.7
		c-0.9-0.8-1.5-2.1-1.5-3.3c0-5.6-4.2-10.2-9.5-10.2l-58-0.2c0,0-57.5-8.7-82.8,48.1c-3.4,7.8,4,15.8,11.3,12.1
		c24-12.6,53.7-29.5,72.1,5.4c0.3,0.7,0.7,1.2,1,1.9l0,0l0,0c0.9,1.5,2.3,2.7,3.7,3.4l-0.1,18c0,5.2,3,9.7,7.2,11.7l-1.1,26.9l0,0
		l-0.3,23.4l-0.5,34.6l0.1,7.2l-0.1,7.3l-0.1,2.9l-0.1,7.1v0.4l26.2,0.1l9.9,0.1l-0.1-5.9l-0.2-15.5l-0.1-7.4l-0.1-7.4l-0.2-27.7
		l-0.4-37l2,36.9l1.5,27.1l0.4,7.2l0.4,7.3l0.9,16.9l0.3,5.5h7.4l-0.2-5.1l-0.6-19.4l-0.2-7.1l-0.2-7.1l-2.4-71.2
		c4.2-2,7.2-6.4,7.3-11.6l0.1-18c3.3-1.7,5.6-5.1,5.6-9.2c0-1.3,0.5-2.6,1.5-3.3c4.4-3.8,18.2-13.4,37.4-0.3
		c1.7,1.2,2.7,3.1,2.7,5.3c0,4.8,3.6,8.8,8.3,8.8l20.6,0.1c4.5,0,8.3-3.8,8.3-8.8l0.2-54.4C233.5,132.4,229.8,128.4,225.3,128.4z
		 M37.1,150.8c-2,1.2-4,2.5-5.7,3.9c-1.8,1.4-3.5,2.7-5,4.2c-1.6,1.5-3,2.7-4.1,4.2c-1.3,1.4-2.3,2.7-3.3,3.8
		c-0.9,1.2-1.6,2.4-2.2,3.2c-1.3,1.8-2,2.9-2,2.9s0.6-1.1,1.6-3c0.5-1,1.1-2.2,1.9-3.6c0.9-1.3,1.9-2.7,3-4.2c1-1.7,2.5-3.1,3.9-4.6
		c1.4-1.7,3-3.1,4.9-4.6c1.8-1.7,3.7-3,5.8-4.2c2-1.5,4.2-2.5,6.4-3.7c4.4-2.2,9-3.8,13.6-5.1c4.4-1.3,8.7-1.8,12.2-2.3
		c7.2-0.8,12.1-0.2,12.1-0.2s-4.8,0.4-11.8,1.9c-3.5,0.7-7.6,1.7-11.8,3.1c-4.3,1.3-8.7,3.1-13,5.2
		C41.2,148.5,39.1,149.4,37.1,150.8z M146.4,144.4c0.2,2.6,0.2,5.1,0.3,8c0.1,5.9,0.3,12.7,0.3,20.1c0,3.6,0.1,7.4,0,11.3
		c-0.4,4.6-4.5,8.4-8.9,8.3c-7.3-0.1-14.7-0.2-21.5-0.2c-3.4-0.1-6.8-0.2-9.9-0.2c-1.6-0.1-3,0-4.7-0.2c-1.7-0.3-3-1.2-4.2-2.3
		c-2.3-2.2-2.8-5.5-2.5-7.9c0.1-2.4,0.2-4.4,0.2-6.1c0.2-3.4,0.3-5.4,0.3-5.4s0.1,2,0.2,5.4c0.1,1.7,0.2,3.7,0.2,6.1
		c-0.1,2.4,0.5,4.8,2.5,6.6c0.9,0.9,2.2,1.5,3.3,1.7c1.3,0.2,3,0,4.4,0c3.1-0.1,6.5-0.1,9.9-0.2c6.9,0,14.3-0.1,21.5-0.1
		c3,0.2,6-2.5,6.3-5.6c0.2-3.6,0.2-7.5,0.2-11.1c0.1-7.3,0.4-14.2,0.5-20.1c0-2.9,0.2-5.6,0.2-8c-0.2-2.2-1.3-4-2.4-5.1
		c-2.5-2.2-4.6-1.9-4.5-2c0,0,0.5-0.1,1.3,0.1c0.9,0.1,2.2,0.4,3.5,1.5C144.6,140,146,141.8,146.4,144.4z M193.5,150.5
		c-0.9,0.6-2.3,1.6-4,2.3c-1.7,0.9-3.7,1.7-6.1,2.4c-1.2,0.2-2.4,0.5-3.6,0.7c-1.3,0.1-2.6,0.2-3.7,0.3c-1.3-0.1-2.6,0-3.7-0.2
		c-1.3-0.2-2.5-0.3-3.6-0.7c-2.3-0.6-4.4-1.5-6.1-2.3c-3.3-1.8-5.2-3.6-5.2-3.6s2.1,1.6,5.5,2.9c3.3,1.5,8.3,2.6,13.2,2.5
		c1.3,0,2.5-0.2,3.6-0.2c1.2-0.2,2.4-0.4,3.4-0.7c2.3-0.7,4.3-1.2,6-1.9c1.8-0.6,3.1-1.3,4.1-1.7c1-0.5,1.6-0.7,1.6-0.7
		S194.5,149.9,193.5,150.5z M229.6,145.3l-29.5-0.2v-1.5l29.5,0.2V145.3z M229.6,139.2l-29.5-0.2v-2.9l29.5,0.2V139.2z"/>
	<path class="st1" d="M121.3,509.3l-22.1-0.2c-3.3,0-7-0.1-10.7-0.2l-2.7,65.4c-0.4,9.9,7,18.1,16.3,18.1l17.4,0.1l17.4,0.1
		c9.3,0,16.7-8.2,16.3-18l-2.4-71.2c-1.1,0.7-2.3,1.4-3.3,2C139.1,509.4,129.7,509.3,121.3,509.3z"/>
</g>
</svg>
