<?xml version="1.0" encoding="utf-8"?>
<!-- Generator: Adobe Illustrator 26.0.2, SVG Export Plug-In . SVG Version: 6.00 Build 0)  -->
<svg version="1.1" id="Capa_1" xmlns="http://www.w3.org/2000/svg" xmlns:xlink="http://www.w3.org/1999/xlink" x="0px" y="0px"
	 width="31.1px" height="28.7px" viewBox="0 0 31.1 28.7" style="enable-background:new 0 0 31.1 28.7;" xml:space="preserve">
<style type="text/css">
	.st0{fill:none;stroke:#000000;stroke-miterlimit:10;}
	.st1{fill:#13110C;}
	.st2{fill:none;}
	.st3{fill:#73A8BF;}
	.st4{fill:#99D3EE;}
	.st5{fill:#498592;}
	.st6{fill:#F9C2A3;}
	.st7{fill:#3B3835;}
	.st8{fill:#DC5F12;}
	.st9{fill:#DD6111;}
	.st10{fill:#ED6C16;}
	.st11{fill:#26225B;}
	.st12{fill:#1D1A31;}
</style>
<polygon class="st0" points="24.8,14.3 5.2,14.3 3.5,1.1 25.5,1.3 "/>
<g id="man_2_">
	<g>
		<path class="st1" d="M13.5,9l2.7-0.3c0,0,0.5-3.9,0.2-4.3c-0.1-0.2-0.2-0.3-0.2-0.6c0-0.1-0.2-0.3-0.3-0.3c-0.1,0-0.2,0.1-0.2,0.2
			C15.8,3.8,16,3.9,16.1,4c0.1,0.1,0.1,0.3,0.1,0.5c0-0.1-1.3-0.6-1.4-0.7c-0.5-0.2-0.8-0.4-1.4-0.5c0.2,0.2,0.4,0.4,0.6,0.6
			c0,0-0.6-0.1-0.7-0.1C13.5,3.9,13.7,4,13.8,4c-0.1-0.1-0.6,0.2-0.7,0.3c-0.2,0.1-0.4,0.3-0.5,0.5V5l0.3-0.2l0.2-0.1l-1,1.1
			l0.4-0.1l0.9,1.9l0.2,0.9L13.5,9z"/>
		<g>
			<polygon class="st2" points="21.4,6 21.5,5.8 21.8,5.4 7.3,6.6 8,7.4 			"/>
			<polygon class="st3" points="24.6,8.4 23.3,6.6 24.5,4.8 27.5,4.6 27.5,4.5 27,3.7 24.2,3.9 22.9,5.3 21.8,5.4 21.5,5.8 21.4,6 
				8,7.4 7.3,6.6 7.2,6.6 5.6,5.7 2.2,6.3 1.9,7.1 1.9,7.2 4.9,7 6.3,8.7 5.6,11.5 2.1,11.1 2.1,12 6.3,12.4 8.6,9.2 21.2,7.9 
				21.5,8.1 23.7,10.4 27.9,9.3 27.7,8.3 24.4,9 			"/>
			<polygon class="st4" points="24.2,3.9 27,3.7 27.5,4.5 27.6,3.5 23.2,3.1 21.8,5.4 22.9,5.3 			"/>
			<polygon class="st4" points="5.6,5.7 7.2,6.6 7.3,6.6 5.9,5.1 1.7,6 1.9,7.1 2.2,6.3 			"/>
			<polygon class="st4" points="24.7,8.5 24.6,8.4 24.4,9 27.7,8.3 27.7,8.2 			"/>
			<polygon class="st4" points="6.3,8.7 5.3,10.6 2.1,10.8 2.1,11.1 5.6,11.5 			"/>
		</g>
		<polyline class="st5" points="9.5,8.7 9.3,7.9 9.6,8.5 18.8,7.7 18.4,7.8 		"/>
		<polygon class="st4" points="20.1,7.5 19.7,7.5 10.1,8.4 17.9,7.3 		"/>
		<polygon class="st5" points="19.4,6.4 19.4,6.6 10.1,7.6 		"/>
		<path class="st6" d="M21.1,6.9V6.7c0,0.2,0.4-0.1,0.5-0.2c0.2-0.3,0.4-0.8,0.3-1.2c0-0.2-0.1-0.3-0.3-0.5c-0.1,0-0.8-0.1-0.8-0.3
			c0-0.2,0-0.5,0-0.7c0,0.1-0.6,0.2-0.7,0.3c-0.1,0.2,0.1,0.9,0.2,1.2c0,0.2-0.1,0.3-0.2,0.5c0,0-0.5-0.2-0.5-0.1
			c-0.1,0-0.2,0-0.2,0.2c-0.1,0.4,0.8,0.6,1.1,0.8l0.1,0.3L21.1,6.9z"/>
		<path class="st6" d="M9,8.1L8.9,7.8c0,0,1.1-0.6,1.1-0.7c0.1-0.1-0.1-0.3-0.2-0.4c-0.1,0-0.2,0-0.2,0c-0.1,0-0.2,0.1-0.2,0.1
			C8.8,7,8.9,6,8.9,5.7c0-0.1,0-0.2,0-0.2C8.8,5.3,8.4,5.3,8.2,5.3c0,0.2,0.1,0.3,0.1,0.5c0.1,0.4-0.8,0.6-1.1,0.8
			C7.2,6.6,7.7,8,7.8,8.1c0,0,0,0.1,0.4,0l0.2,0.6L9,8.1z"/>
		<path class="st7" d="M13,5.7C13.3,5.8,13.6,5.9,14,6c0.3,0.1,0.6,0.2,0.9,0.3c-0.5,0.2-1,0.2-1.5,0.2c-0.1,0-0.3-0.6-0.3-0.7
			C13,5.8,13,5.7,13,5.7z"/>
		<path class="st7" d="M16.5,5.1c0,0-0.2,1.2-0.6,1.2c-0.4,0.1-2.4-0.8-2.4-0.8c0,0,0.3-0.1,0.3-0.1c0.3,0,0.6,0.1,0.9,0.2
			c-0.3-0.2-0.6-0.3-0.9-0.5C13.4,5,13,5.3,12.7,5.4c0.2-0.1,0.4-0.3,0.6-0.4c0,0,0.1-0.1,0.1-0.1C13.6,4.8,14,5,14.2,5.1
			c0.3,0.1,0.7,0.2,1,0.3c-0.5-0.2-1-0.5-1.4-0.7c0.2,0.1,0.5,0.2,0.7,0.2c0.3,0.1,0.6,0.2,0.9,0.3c-0.3-0.2-0.7-0.3-1-0.5
			C14.7,4.8,15,4.9,15.3,5c0.1,0,0.4,0.1,0.5,0.2c-0.1-0.1-0.3-0.3-0.4-0.4c-0.2-0.1-0.3-0.1-0.5-0.2c-0.1,0-0.2-0.1-0.1-0.2
			c0,0,0.1-0.1,0.1-0.1c0.3-0.1,0.7,0.2,1,0.4C16.1,4.8,16.3,4.9,16.5,5.1C16.5,5,16.5,5.1,16.5,5.1z"/>
		<g>
			<path class="st2" d="M17.6,11.6c0.1-0.1,0.2-0.2,0.2-0.3c0.1,0.1,0.3,0.2,0.4,0.3c0.4,0.2,0.8,0.4,1.3,0.6
				c-1-0.7-1.9-1.5-1.9-1.5L17.6,11.6z"/>
			<path class="st8" d="M20.7,12.7c-0.4-0.1-0.8-0.3-1.2-0.5c0.9,0.6,1.8,1.1,2.3,1L22,13c0.2-0.2,0.1-0.9,0-1.2
				c-0.1,0.2-0.2,0.4-0.2,0.4C21.5,12.8,21.5,13,20.7,12.7z"/>
			<path class="st9" d="M17.5,14l0.1-2.4c-0.3,0.2-0.7,0.2-1,0.1c-0.5-0.1-1.1-0.8-1.7-0.6c-0.2,0.1-0.4,0.3-0.5,0.5
				c-0.2,0.2-0.4,0.3-0.6,0.3c-0.1,0-0.2-0.1-0.3-0.2c-0.2-0.1-0.3-0.3-0.4-0.4c0.1,1.9,0.1,2.6,0.1,2.6"/>
			<g>
				<path class="st10" d="M22.1,11.7c0-0.7-0.2-1.3-0.3-1.9c-0.1-0.5-0.1-1-0.2-1.5c-0.1-0.4-0.1-0.9-0.3-1.2
					c-0.1-0.2-0.6-0.3-0.8-0.2c-0.4,0.2-0.2,1-0.2,1.3c0.4,2.1,0.7,3.4,0.7,3.4s-2.2-0.9-2.6-1.4c-0.2-0.2-0.4-0.3-0.5-0.5
					c-0.1-0.2-0.2-0.4-0.2-0.6c0-0.1,0-0.2,0-0.3c0-0.1,0-0.2,0-0.3c0,0-0.2,0.1-0.2,0.1c-0.1,0-0.2,0.1-0.3,0.2
					c-0.1,0.1-0.2,0.1-0.4,0.2c-0.2,0.1-0.5,0.3-0.7,0.5c0.1-0.1,0.1-0.3,0.1-0.4c0-0.2-0.1-0.3-0.3-0.4c-0.2-0.2-0.6-0.3-0.9-0.2
					c-0.3,0.1-0.7,0.2-0.9,0.4C14,9,13.9,9.1,13.9,9.2c0,0.1,0.1,0.3,0.2,0.4c-0.2-0.1-0.3-0.1-0.5-0.2c-0.2-0.1-0.3-0.2-0.5-0.2
					C13,9,12.8,9,12.7,8.9c-0.1,0-0.1-0.1-0.2,0c-0.1,0-0.2,0.2-0.2,0.3C12.2,9.4,12.1,9.7,12,10l0,0l-2.2,3.2L9,8.1
					c0,0-0.7-0.2-0.8,0.5c0,0.2,0.1,0.5,0.1,0.8c0.1,0.8,0.3,1.6,0.5,2.4C9,12.5,9.1,13.2,9.3,14c0.9-0.2,2-1.6,2-1.6l0,0.1
					c0.2-0.3,0.4-0.5,0.6-0.8c0.2-0.2,0.3-0.5,0.5-0.7c0.1-0.1,0.1-0.2,0.2-0.3c0,0,0.3-0.2,0.3-0.2c0,0,0,0.4,0,0.9
					c0.1,0.1,0.3,0.2,0.4,0.4c0.1,0.1,0.2,0.2,0.3,0.2c0.2,0,0.4-0.1,0.6-0.3c0.2-0.2,0.3-0.4,0.5-0.5c0.6-0.2,1.1,0.5,1.7,0.6
					c0.4,0.1,0.8,0.1,1-0.1l0-0.9c0,0,0.9,0.8,1.9,1.5c0.4,0.2,0.8,0.3,1.2,0.5c0.8,0.3,0.8,0.1,1.1-0.5C21.9,12.2,22,12,22.1,11.7
					C22.1,11.8,22.1,11.8,22.1,11.7z"/>
				<path class="st9" d="M9.3,14c0,0.1,0,0.1,0,0.2c0,0.2,0.1,0.3,0.1,0.5c0,0,0,0,0,0c0,0,0,0,0,0c0.2,0,0.2,0,0.3-0.2
					c0.1-0.1,0.1-0.2,0.2-0.3c0.1-0.2,0.3-0.4,0.4-0.6c0.3-0.4,0.6-0.8,0.9-1.2v-0.1C11.3,12.4,10.2,13.8,9.3,14z"/>
			</g>
		</g>
		<g>
			<polyline class="st11" points="16.5,13.9 16.6,9 16.5,9.1 16.3,9.3 16.1,9.4 16,9.5 15.9,13.7 14.2,13.7 14.1,9.5 13.5,9.2 
				13.7,13.9 			"/>
		</g>
	</g>
	<path class="st9" d="M15.6,8.9h-0.1l-1,0.1c0,0,0.5-0.4,0.7-0.3C15.4,8.8,15.6,8.9,15.6,8.9z"/>
</g>
<polyline class="st12" points="13,14 13.7,14 16.6,14 17.5,14 "/>
<g>
	<path d="M1,16.8c0.2,0,0.3,0,0.4,0.1c-0.1,1.4-0.1,3.4-0.1,4.6v0.3c0.5-0.1,1,0,1.5-0.4c0-1.4,0.1-4.2,0.3-5.3
		c0.1-0.1,0.3-0.2,0.5-0.2c0.2,0,0.4,0.1,0.5,0.2c-0.2,1-0.2,3.3-0.2,5.8c0,2.3,0.1,4.7,0.2,6.5c-0.1,0.1-0.4,0.3-0.6,0.3
		c-0.4,0-0.6-2.6-0.6-4.6V24c-0.5,0.2-0.7,0.3-1.1,0.3c-0.1,0-0.3,0-0.4-0.1c0,0.8-0.1,2-0.2,3.3c-0.1,0.3-0.4,0.4-0.6,0.4
		c-0.3,0-0.5-0.2-0.5-0.5c0.3-4.2,0.3-7,0.4-10.4C0.5,16.8,0.8,16.8,1,16.8z"/>
	<path d="M6.6,20.5c0.7,0,1.3,1.4,1.3,3.3c0,0.8-0.2,4.1-1.8,4.1c-0.6,0-1.2-1-1.2-3.5c0-0.6,0.1-1.4,0.3-2.2
		C5.5,21.1,6.1,20.5,6.6,20.5z M5.6,24.2c0,0.8,0.2,1.6,0.6,1.6h0.1c0.6-0.3,0.9-1.1,0.9-1.8c0-0.8-0.3-1.6-0.8-1.6
		c-0.2,0-0.3,0.1-0.5,0.3C5.7,23.1,5.6,23.7,5.6,24.2z"/>
	<path d="M11.9,26.1c0-0.5,0-1,0-1.4c0-0.4,0-0.6-0.1-0.6c0,0-0.1,0-0.1,0.1c-0.9,1.8-1.1,2.6-1.3,2.6c-0.2,0-0.4-0.5-0.9-1.6
		c-0.1,0-0.2,1.8-0.3,2.4l-0.3,0c-0.3,0-0.5-0.1-0.5-0.5c0-1.4,0.2-3.7,0.2-6c0-0.2,0-0.5,0-0.7c0.1-0.1,0.2-0.1,0.3-0.1
		c0.1,0,0.1,0,0.2,0l1.3,4.1l1.8-4.5c0,0,0,0,0,0c0.1,0,0.3,0.2,0.3,0.4c-0.1,1.2-0.2,2.6-0.2,4.5c0,0.8,0,1.7,0.1,2.7
		c0,0.1,0,0.1-0.1,0.1c-0.1,0-0.3-0.1-0.4-0.1C11.9,27.2,11.9,26.6,11.9,26.1z"/>
	<path d="M14.2,22.7c0,0.3,0,0.7,0,1c0.4-0.1,0.9-0.4,1.2-0.4c0.2,0,0.3,0.2,0.3,0.3c0,1.1,0,1.1-0.5,1.2c-0.4,0.1-0.6,0.3-0.9,0.4
		c0,0.3,0,0.5,0,0.9c0.5,0,1-0.1,1.7-0.1h0.1c0.3,0,0.3,0.1,0.3,0.2c0,1.5-0.4,1.5-0.8,1.5h-0.1c-0.7,0-1.2,0.1-2,0.1
		c-0.1-0.7-0.1-1.8-0.1-2.9c0-1.6,0.1-3.3,0.1-4.2c0-0.3,1.8-0.6,2.7-0.6c0.3,0,0.3,0.1,0.3,0.3c0,1.5-0.6,1.6-1.2,1.6H15
		c-0.3,0-0.6,0-0.7,0.2C14.2,22.4,14.2,22.6,14.2,22.7z"/>
	<path d="M21.1,15.7c0.6,0,0.6,0.3,0.6,0.7c0,0.8,0,1.8-0.4,1.9c-0.6,0.2-2,0.3-2.6,0.7c0,0.6-0.1,1.6-0.1,2.3v0.2
		c0.3-0.1,1.8-0.8,2.3-0.8c0.3,0,0.3,0.3,0.3,0.8v0.2c0,1.9-0.4,1.1-2.5,2.4c-0.1,0.7,0.1,3.7-0.6,3.7c-0.4,0-0.5-0.5-0.5-2
		c0-2.4,0.2-6.6,0.3-9.1C18,16.3,20.1,15.7,21.1,15.7z"/>
	<path d="M23.6,16.5c0.2,0,0.4,0.1,0.5,0.2C24,17.8,24,18.9,24,20c0,2.2,0.1,4.4,0.1,6.5c0,0.8-0.1,1.5-0.7,1.5
		c-0.2,0-0.3-0.1-0.4-0.2c0-0.8-0.1-3.4-0.1-6c0-1.8,0.1-3.7,0.3-5.1C23.1,16.6,23.4,16.5,23.6,16.5z"/>
	<path d="M28.6,20.6c0.5-0.9,1.2-2.5,1.2-3.4v-0.1c0.4-0.3,1-0.6,1.4-0.8c0,1.6-0.9,3.9-1.8,5.5c0.4,1,1,1.7,1.6,3.4
		c-0.2,1.1-0.3,1.8-0.5,2.7h-0.7c-0.4-1.1-1.1-2.3-1.3-2.9c-0.1,0.4-0.4,1.1-0.6,1.8c-0.4,0.4-0.7,0.6-1.3,0.9l-0.1,0
		c0.1-1.3,0.7-3.3,1.1-4.2c-0.7-1.1-2.1-3.1-2.1-4.4c0-1,0.3-2.1,0.7-2.8C26.9,17.3,27.6,18.7,28.6,20.6z"/>
</g>
</svg>
